<?xml version="1.0" encoding="UTF-8" standalone="no"?>
<!-- Created with Inkscape (http://www.inkscape.org/) -->

<svg
   width="800"
   height="800"
   viewBox="0 0 211.66667 211.66667"
   version="1.1"
   id="svg1"
   inkscape:export-filename="..\PNG\CGW_800_Bez.png"
   inkscape:export-xdpi="96"
   inkscape:export-ydpi="96"
   sodipodi:docname="CGW_800_Bez.svg"
   xmlns:inkscape="http://www.inkscape.org/namespaces/inkscape"
   xmlns:sodipodi="http://sodipodi.sourceforge.net/DTD/sodipodi-0.dtd"
   xmlns="http://www.w3.org/2000/svg"
   xmlns:svg="http://www.w3.org/2000/svg">
  <sodipodi:namedview
     id="namedview1"
     pagecolor="#ffffff"
     bordercolor="#000000"
     borderopacity="0.25"
     inkscape:showpageshadow="2"
     inkscape:pageopacity="0.0"
     inkscape:pagecheckerboard="0"
     inkscape:deskcolor="#d1d1d1"
     inkscape:document-units="mm"
     inkscape:zoom="0.51717104"
     inkscape:cx="247.50033"
     inkscape:cy="644.85437"
     inkscape:window-width="1435"
     inkscape:window-height="1237"
     inkscape:window-x="1386"
     inkscape:window-y="759"
     inkscape:window-maximized="0"
     inkscape:current-layer="layer1" />
  <defs
     id="defs1" />
  <g
     id="g24"
     inkscape:label="LOGO GŁÓWNE"
     transform="matrix(0.22185637,0.05965221,-0.05965221,0.22185637,477.37901,115.89959)"
     style="stroke-width:5.13459">
    <g
       id="g33"
       inkscape:label="GWIAZDKI"
       transform="matrix(4.9585133,-1.3332333,1.3332333,4.9585133,-2224.0365,39.595768)"
       style="display:none">
      <path
         id="rect1"
         style="font-variation-settings:'wdth' 87, 'wght' 600;fill:none;fill-opacity:1;stroke:#7ee3ff;stroke-width:0.211667;stroke-linecap:round;stroke-linejoin:round;stroke-dasharray:none;stroke-opacity:1;paint-order:markers stroke fill"
         d="m 185.45927,158.8667 c 0,0 2.60419,-0.8082 3.30551,-1.86018 0.70132,-1.05199 0.44574,-3.7667 0.44574,-3.7667 0,0 0.79041,2.60502 1.84292,3.30896 1.05248,0.70397 3.78396,0.44229 3.78396,0.44229 0,0 -2.61936,0.86245 -3.31242,1.91545 -0.69304,1.05301 -0.43884,3.71143 -0.43884,3.71143 0,0 -0.82333,-2.54999 -1.86709,-3.25025 -1.04373,-0.70029 -3.75978,-0.501 -3.75978,-0.501 z"
         sodipodi:nodetypes="czczczczc" />
      <path
         id="path24"
         style="font-variation-settings:'wdth' 87, 'wght' 600;fill:none;fill-opacity:1;stroke:#7ee3ff;stroke-width:0.132292;stroke-linecap:round;stroke-linejoin:round;stroke-dasharray:none;stroke-opacity:1;paint-order:markers stroke fill"
         d="m 194.27024,163.3313 c 0,0 1.20525,-1.14545 1.3044,-1.91004 0.0991,-0.76458 -0.77408,-2.17957 -0.77408,-2.17957 0,0 1.13596,1.21051 1.90154,1.31095 0.76556,0.10046 2.18807,-0.78063 2.18807,-0.78063 0,0 -1.19889,1.17922 -1.29324,1.94212 -0.0944,0.76291 0.76292,2.14749 0.76292,2.14749 0,0 -1.13909,-1.17153 -1.89889,-1.27232 -0.75979,-0.10081 -2.19072,0.742 -2.19072,0.742 z"
         sodipodi:nodetypes="czczczczc" />
      <path
         id="path25"
         style="font-variation-settings:'wdth' 87, 'wght' 600;fill:none;fill-opacity:1;stroke:#7ee3ff;stroke-width:0.105833;stroke-linecap:round;stroke-linejoin:round;stroke-dasharray:none;stroke-opacity:1;paint-order:markers stroke fill"
         d="m 196.81964,158.03837 c 0,0 0.42531,-1.11824 0.25163,-1.6451 -0.17372,-0.52684 -1.18061,-1.17296 -1.18061,-1.17296 0,0 1.11371,0.43167 1.64162,0.25852 0.5279,-0.17313 1.17643,-1.1875 1.17643,-1.1875 0,0 -0.41067,1.13816 -0.2344,1.66243 0.17624,0.52429 1.16339,1.15562 1.16339,1.15562 0,0 -1.10362,-0.40541 -1.62788,-0.23428 -0.52427,0.17111 -1.19018,1.16327 -1.19018,1.16327 z"
         sodipodi:nodetypes="czczczczc" />
    </g>
    <g
       id="g34"
       inkscape:label="Clean Green WORLD"
       transform="matrix(4.9585133,-1.3332333,1.3332333,4.9585133,-2224.0365,39.595768)"
       style="display:none">
      <g
         id="text34"
         style="font-size:56.4444px;font-family:Bahnschrift;-inkscape-font-specification:'Bahnschrift, Normal';letter-spacing:7.9375px;white-space:pre;fill:#ffff00;stroke-width:142.468;stroke-linecap:square;stroke-linejoin:round;paint-order:stroke fill markers"
         aria-label="Clean Green"
         transform="matrix(0.23776932,0.02173483,-0.02173483,0.23776932,30.488945,7.8930222)"
         inkscape:label="Clean Green">
        <path
           style="fill:#666666;stroke-width:142.468"
           d="m 452.67765,722.95563 q -4.12556,0.54706 -7.51027,-0.86686 -3.3574,-1.41753 -5.52427,-4.54985 -2.16688,-3.13231 -2.75379,-7.55841 l -1.44553,-10.90131 q -0.58691,-4.4261 0.68874,-8.01489 1.27564,-3.5888 4.14757,-5.83236 2.89563,-2.2745 7.02119,-2.82155 3.41519,-0.45287 6.4796,0.6421 3.06078,1.06764 5.32833,3.49155 2.29488,2.42029 3.44527,5.8542 v 0 l -5.71021,0.75719 v 0 q -0.76547,-1.78904 -2.18695,-3.07405 -1.39779,-1.31596 -3.14215,-1.89091 -1.74436,-0.57495 -3.49294,-0.34309 -2.43162,0.32244 -4.10638,1.74 -1.67477,1.41756 -2.40308,3.68269 -0.73193,2.23781 -0.35878,5.05194 l 1.44554,10.90131 q 0.36953,2.7868 1.66301,4.78384 1.29349,1.99704 3.27982,2.92913 1.98271,0.90477 4.41433,0.58234 1.7759,-0.23549 3.29006,-1.18692 1.54147,-0.95506 2.55161,-2.56251 1.03746,-1.61108 1.2921,-3.67439 v 0 l 5.71021,-0.75718 v 0 q -0.21569,3.61506 -1.80048,6.5498 -1.58479,2.93474 -4.25792,4.79051 -2.67675,1.82844 -6.06463,2.27768 z m 32.4173,-14.05615 q 0.24333,1.01865 0.80671,1.47913 0.58378,0.42727 1.38798,0.23517 l 2.57342,-0.61473 1.24227,5.20047 -3.21678,0.76841 q -3.10956,0.7428 -5.28623,-0.77745 -2.14986,-1.52665 -2.98871,-5.03831 l -7.58168,-31.73894 5.46853,-1.3063 z m 30.97194,-1.01154 q -3.75459,1.28609 -6.89638,0.78909 -3.14178,-0.49699 -5.47859,-2.72636 -2.31967,-2.26437 -3.64147,-6.12325 l -1.04495,-3.05061 q -1.3754,-4.01532 -1.01914,-7.31282 0.38233,-3.30644 2.42846,-5.66788 2.04613,-2.36144 5.64428,-3.59394 3.38956,-1.16105 6.36885,-0.28794 2.97929,0.87312 5.32935,3.65147 2.37613,2.76942 3.91229,7.25406 l 0.60732,1.773 -18.25148,6.2518 -1.4647,-4.27605 13.1932,-4.51916 v 0 q -1.36891,-3.23096 -3.48029,-4.54703 -2.09422,-1.35108 -4.57121,-0.50262 -3.02453,1.03601 -4.01447,3.58919 -0.96386,2.54425 0.27756,6.16847 l 1.17892,3.44171 q 1.15211,3.36349 3.54136,4.55524 2.38925,1.19176 5.64844,0.0754 1.61656,-0.55374 2.98377,-1.75037 1.36721,-1.19664 2.21683,-2.79865 v 0 l 4.69063,2.29708 v 0 q -1.34676,2.61714 -3.48364,4.54355 -2.14581,1.90033 -4.67494,2.76665 z m 31.3277,-33.22982 q -1.21386,-2.53562 -3.24754,-3.27319 -2.02072,-0.77434 -4.50662,0.41572 -1.54126,0.73784 -2.80668,1.9242 -1.24058,1.17445 -1.97947,2.56709 l -4.91785,-0.76243 q 0.62174,-2.46713 2.54408,-4.57909 1.9353,-2.14872 4.86866,-3.55298 3.20682,-1.53518 6.04127,-1.48652 2.82256,0.0238 5.05114,1.61531 2.21668,1.56664 3.66856,4.59944 l 7.93769,16.58096 -4.82265,2.30872 z m 1.69491,19.75286 q -4.77293,2.28492 -8.07468,1.45161 -3.31365,-0.85816 -5.24155,-4.88532 -1.83269,-3.82829 -0.5863,-6.77779 1.24639,-2.94949 5.62157,-5.044 l 7.33341,-3.51067 2.29972,3.91027 -7.65657,3.66538 q -1.98872,0.95205 -2.55466,2.323 -0.55298,1.33418 0.31576,3.14889 0.94015,1.96386 2.68504,2.28968 1.76975,0.31391 4.42966,-0.95946 2.90851,-1.39236 4.02796,-2.69217 1.1443,-1.31171 0.51357,-2.62924 l 2.25953,3.3795 q -0.17137,1.3654 -0.84442,2.51261 -0.64818,1.13532 -1.78614,2.07732 -1.12606,0.96686 -2.7419,1.74039 z m 10.0901,-37.83545 4.74894,-3.0098 15.31458,24.16369 -4.74893,3.0098 z m 20.70019,0.22617 q -1.62293,-2.5607 -3.83508,-3.11647 -2.21214,-0.55577 -4.60989,0.96388 -2.32791,1.4754 -2.8263,3.52065 -0.47511,2.03051 0.94127,4.2653 l -3.43965,-4.34599 q -0.26947,-2.89642 0.77057,-5.2197 1.06331,-2.33804 3.25155,-3.72491 3.93416,-2.49342 7.71353,-1.2668 3.78788,1.18858 6.76818,5.89096 l 9.29498,14.66582 -4.74894,3.00981 z"
           id="path39"
           inkscape:label="Clean" />
        <path
           style="fill:#a9ffab;stroke-width:142.468"
           d="m 630.47638,609.27919 4.84192,5.05587 q 3.08815,3.2246 4.19791,6.89377 1.0907,3.64927 0.078,7.21408 -1.01187,3.52584 -4.03743,6.42337 -3.06537,2.93565 -6.59521,3.91197 -3.52899,0.93735 -7.01418,-0.15162 -3.48519,-1.08896 -6.40178,-4.13443 l -8.17789,-8.53924 q -3.08815,-3.22461 -4.17885,-6.87387 -1.09069,-3.64926 -0.0788,-7.17511 1.01272,-3.56481 4.03828,-6.46234 2.48812,-2.38283 5.60753,-3.30954 3.12025,-0.96568 6.40165,-0.36844 3.2814,0.59724 6.23811,2.68841 v 0 l -4.39901,4.21285 v 0 q -1.74986,-1.10993 -3.59704,-1.3253 -1.86623,-0.23526 -3.53541,0.33294 -1.68825,0.54829 -2.92236,1.73018 -1.79145,1.71564 -2.32529,3.86782 -0.53385,2.15217 0.21656,4.41008 0.73134,2.23801 2.6948,4.28822 l 8.17789,8.53924 q 1.79189,1.87107 3.90173,2.55994 2.09078,0.66897 4.20766,0.12994 2.1368,-0.55809 3.94815,-2.2928 1.79145,-1.71564 2.38248,-3.8081 0.57197,-2.11237 -0.15937,-4.35037 -0.73134,-2.238 -2.75198,-4.34793 l -1.20095,-1.25402 -5.87198,5.62349 -3.71722,-3.88147 z m 3.82515,-14.99383 3.58303,-4.3328 22.04634,18.23127 -3.58303,4.33281 z m 15.25381,-7.8069 q -1.17511,-0.006 -2.2563,0.56607 -1.08118,0.57223 -2.02963,1.71915 -1.7037,2.0602 -1.50522,4.15557 0.19479,2.05657 2.21252,3.72513 l -4.61669,-3.06674 q -1.13219,-2.65293 -0.88053,-5.16286 0.23041,-2.52751 1.84628,-4.48152 1.24703,-1.50799 2.6942,-2.34978 1.44349,-0.8806 3.0483,-1.09134 z m 33.10447,-8.20915 q -2.18967,3.31003 -4.98194,4.83351 -2.79228,1.52348 -6.00398,1.18332 -3.21949,-0.37836 -6.62146,-2.62885 l -2.6894,-1.77911 q -3.5399,-2.34172 -5.2699,-5.17148 -1.7148,-2.85275 -1.53483,-5.97215 0.17997,-3.11941 2.2784,-6.29152 1.97678,-2.98822 4.86985,-4.11457 2.89306,-1.12636 6.45027,-0.35936 3.57241,0.74401 7.52606,3.35945 l 1.56307,1.03401 -10.64421,16.09043 -3.76976,-2.49379 7.69425,-11.63108 v 0 q -3.05612,-1.72429 -5.53191,-1.47849 -2.48356,0.20761 -3.92814,2.39131 -1.76389,2.66641 -0.99012,5.2932 0.78898,2.60379 3.98408,4.71743 l 3.0342,2.00719 q 2.96524,1.96158 5.5853,1.44772 2.62007,-0.51385 4.52082,-3.38714 0.94278,-1.42515 1.29568,-3.20747 0.35291,-1.78232 0.0484,-3.56993 v 0 l 5.11777,-1.04257 v 0 q 0.53013,2.8952 0.0128,5.72533 -0.54032,2.81493 -2.01531,5.04461 z m 19.09318,-33.11609 q -1.78898,3.54266 -4.38468,5.38118 -2.5957,1.83852 -5.82516,1.87498 -3.24164,-5.7e-4 -6.88272,-1.83925 l -2.87841,-1.45355 q -3.78869,-1.91322 -5.83669,-4.52208 -2.03558,-2.63346 -2.22038,-5.75258 -0.1848,-3.11912 1.52964,-6.51417 1.61506,-3.19825 4.35714,-4.65409 2.74208,-1.45584 6.36444,-1.10864 3.63478,0.3226 7.8663,2.45945 l 1.67292,0.8448 -8.69645,17.22129 -4.03471,-2.03745 6.2863,-12.44854 v 0 q -3.23625,-1.35637 -5.66652,-0.82371 -2.44244,0.49564 -3.62268,2.83281 -1.44112,2.85382 -0.36649,5.37252 1.08706,2.4941 4.50672,4.22097 l 3.24744,1.6399 q 3.17364,1.60264 5.71597,0.78693 2.54232,-0.8157 4.09526,-3.89093 0.77026,-1.52532 0.91305,-3.33662 0.14279,-1.8113 -0.36797,-3.55124 v 0 l 4.9614,-1.6319 v 0 q 0.86392,2.81368 0.67994,5.68482 -0.20858,2.85872 -1.41366,5.2451 z m -16.17465,-34.02998 1.92199,-5.28367 26.8846,9.7795 -1.92199,5.28368 z m 16.5288,-12.46385 q -2.84904,-1.03636 -4.94009,-0.12533 -2.09105,0.91103 -3.06146,3.57877 -0.94215,2.59004 -0.0876,4.5139 0.86396,1.89796 3.35039,2.80242 l -5.37792,-1.34039 q -1.98241,-2.12884 -2.57787,-4.60366 -0.58605,-2.50073 0.29957,-4.93536 1.59223,-4.37717 5.33395,-5.71422 3.72525,-1.37237 8.95712,0.53077 l 16.31725,5.93554 -1.92199,5.28368 z"
           id="path40"
           inkscape:label="Green" />
      </g>
      <path
         d="m 147.62358,188.95025 1.52163,-0.57601 5.56136,8.6262 -2.15536,-9.91551 2.06129,-0.78029 2.51602,13.75396 -2.00821,0.76021 -5.12561,-8.06293 1.40113,9.47279 -2.01705,0.76354 -7.22249,-11.97236 2.06128,-0.78029 4.95979,8.85393 z m 18.15985,6.92011 q -1.10954,0.61289 -2.17997,0.63143 -1.07499,0.0102 -1.97492,-0.56249 -0.89622,-0.58561 -1.51369,-1.70342 l -2.75342,-4.98462 q -0.61745,-1.11782 -0.63142,-2.17996 -0.0102,-1.075 0.57534,-1.97122 0.58104,-0.90451 1.69057,-1.5174 1.10954,-0.61288 2.18453,-0.62314 1.07042,-0.0186 1.96665,0.56707 0.89992,0.57274 1.51739,1.69056 l 2.75343,4.98463 q 0.61746,1.11781 0.62771,2.19281 0.0139,1.06214 -0.56707,1.96665 -0.5856,0.89621 -1.69513,1.5091 z m -1.03825,-1.87958 q 0.52165,-0.28815 0.79189,-0.7184 0.26567,-0.43854 0.24855,-0.95859 -0.009,-0.52466 -0.3107,-1.07114 l -2.72597,-4.93495 q -0.30187,-0.54648 -0.74128,-0.83329 -0.43568,-0.29966 -0.94377,-0.29998 -0.51265,-0.009 -1.0343,0.27956 -0.52165,0.28815 -0.78732,0.72668 -0.27025,0.43025 -0.24857,0.9586 0.0172,0.52007 0.31899,1.06656 l 2.72598,4.93494 q 0.30187,0.54649 0.73298,0.83787 0.43112,0.29138 0.94378,0.29997 0.50809,2.5e-4 1.02974,-0.28783 z m 4.1586,-9.3077 2.89005,-2.12146 q 0.34314,-0.2519 0.49045,-0.59472 0.14732,-0.34283 0.0831,-0.71809 -0.0622,-0.38851 -0.3365,-0.76215 l -0.4534,-0.61766 q -0.28547,-0.38889 -0.63544,-0.57791 -0.34996,-0.18901 -0.72118,-0.1512 -0.37122,0.0378 -0.72199,0.29529 l -2.89004,2.12147 -1.22586,-1.66997 2.85192,-2.09348 q 0.90743,-0.66611 1.83595,-0.80792 0.93055,-0.15504 1.77034,0.23767 0.83418,0.38507 1.4779,1.262 l 0.49258,0.67104 q 0.65492,0.89217 0.77588,1.82427 0.12299,0.91888 -0.29056,1.76222 -0.41355,0.84335 -1.32098,1.50946 l -2.85191,2.09349 z m -4.27577,-4.24224 1.73098,-1.27064 8.14441,11.09501 -1.73097,1.27064 z m 7.42502,3.96054 1.45824,-1.61021 6.23081,3.62853 -1.99024,1.46096 z m 1.18787,-10.53462 1.5707,-1.47798 9.42535,10.01665 -1.5707,1.47798 z m 8.74284,7.81435 4.61566,-4.34318 1.41963,1.5087 -4.61565,4.34317 z m 7.75361,-7.79955 1.69587,-2.03451 q 0.59355,-0.71209 0.54398,-1.40608 -0.0568,-0.70004 -0.73984,-1.26938 l -4.51953,-3.76725 q -0.68302,-0.56932 -1.37459,-0.49311 -0.69885,0.0701 -1.2924,0.78223 l -1.69587,2.03452 -1.59127,-1.32641 1.70797,-2.04905 q 0.83583,-1.00272 1.77936,-1.41076 0.94234,-0.42136 1.92697,-0.22866 0.98464,0.1927 1.9365,0.98612 l 4.54859,3.79148 q 0.93733,0.78131 1.30419,1.71516 0.37291,0.92657 0.14267,1.94148 -0.23147,1.0016 -1.0794,2.01886 l -1.70193,2.04177 z m -9.82159,-6.46273 1.38092,-1.65668 10.56494,8.80641 -1.38092,1.65667 z"
         id="text37"
         style="font-size:81.139px;font-family:Bahnschrift;-inkscape-font-specification:'Bahnschrift, @wght=600,wdth=87.0';font-variation-settings:'wdth' 87, 'wght' 600;letter-spacing:7.9375px;white-space:pre;fill:#7ee3ff;stroke-width:34.0157;stroke-linecap:square;stroke-linejoin:round;paint-order:stroke fill markers"
         aria-label="WORLD"
         inkscape:label="WORLD" />
    </g>
    <g
       id="g60"
       inkscape:label="PLANETA"
       transform="matrix(4.643942,-0.01214826,0.01214826,4.643942,-2991.1317,-76.439608)">
      <circle
         style="opacity:1;fill:#7ee3ff;fill-opacity:1;stroke:none;stroke-width:11.1124;stroke-linecap:round;stroke-linejoin:round"
         id="circle40"
         cx="334.04733"
         cy="17.056759"
         r="82.227905"
         inkscape:label="ocean"
         transform="rotate(15.04962)" />
      <g
         id="g61"
         inkscape:label="kontynenty">
        <path
           style="font-variation-settings:'wdth' 87, 'wght' 600;opacity:1;fill:#a9ffab;fill-opacity:0.960784;stroke:none;stroke-width:0.105833;stroke-linecap:round;stroke-linejoin:round;stroke-dasharray:none;stroke-opacity:1;paint-order:markers stroke fill"
           d="m 235.96557,102.50119 c -0.13847,8.98679 1.43877,18.36132 3.90202,25.88857 2.70604,8.26916 6.63983,16.2555 12.42146,24.08749 0,-2.08916 0,-4.17831 -0.40537,-6.31426 -0.40536,-2.13595 -1.21606,-4.31861 -1.09133,-6.50133 0.12474,-2.18272 1.18488,-4.36538 0.93541,-6.08037 -0.24946,-1.715 -1.8085,-2.96223 -2.75954,-4.27187 -0.95103,-1.30963 -1.29402,-2.68158 -2.07357,-3.89767 -0.77955,-1.21609 -1.9956,-2.27623 -3.10255,-3.83533 -1.10696,-1.55909 -2.10474,-3.61702 -2.58806,-6.20511 -0.48332,-2.5881 -0.45216,-5.70618 -1.21613,-7.93567 -0.76397,-2.22948 -2.46332,-3.59365 -4.02239,-4.93445 z"
           id="path41"
           sodipodi:nodetypes="cscsssssssscc" />
        <path
           style="font-variation-settings:'wdth' 87, 'wght' 600;opacity:1;fill:#a9ffab;fill-opacity:0.960784;stroke:none;stroke-width:0.105833;stroke-linecap:round;stroke-linejoin:round;stroke-dasharray:none;stroke-opacity:1;paint-order:markers stroke fill"
           d="m 360.51984,146.77105 c -0.18709,0.87308 -0.37418,1.74616 -0.77955,2.41656 -0.40536,0.67041 -1.02898,1.13812 -1.34079,1.57467 -0.31181,0.43654 -0.31181,0.84189 -1.21609,1.44994 -0.90429,0.60804 -2.71277,1.41874 -3.46112,2.54129 -0.74835,1.12255 -0.43655,2.55686 -0.84192,3.5079 -0.40537,0.95104 -1.52788,1.41876 -1.88646,2.04239 -0.35858,0.62364 0.0468,1.40316 0.24945,2.33861 0.20268,0.93546 0.20268,2.02679 0.77955,2.27624 0.57686,0.24944 1.73055,-0.343 2.44773,-1.12254 0.71717,-0.77955 0.9978,-1.74616 2.40099,-4.19394 1.40319,-2.44778 3.92884,-6.37656 4.72396,-8.76195 0.79511,-2.38539 -0.14031,-3.22727 -1.07575,-4.06917 z"
           id="path42"
           sodipodi:nodetypes="csssssssssssc" />
        <path
           style="font-variation-settings:'wdth' 87, 'wght' 600;opacity:1;fill:#a9ffab;fill-opacity:0.960784;stroke:none;stroke-width:0.105833;stroke-linecap:round;stroke-linejoin:round;stroke-dasharray:none;stroke-opacity:1;paint-order:markers stroke fill"
           d="m 365.21264,156.62438 c -0.0779,-0.37417 0.14032,-0.90426 0.48332,-0.9978 0.343,-0.0935 0.81072,0.24945 0.88867,0.62363 0.0779,0.37418 -0.23386,0.77953 -0.57686,0.87307 -0.343,0.0935 -0.71717,-0.12472 -0.79513,-0.4989 z"
           id="path43"
           sodipodi:nodetypes="sssss" />
        <path
           style="font-variation-settings:'wdth' 87, 'wght' 600;opacity:1;fill:#a9ffab;fill-opacity:0.960784;stroke:none;stroke-width:0.105833;stroke-linecap:round;stroke-linejoin:round;stroke-dasharray:none;stroke-opacity:1;paint-order:markers stroke fill"
           d="m 368.1437,154.08309 c -0.26504,0.20268 -0.38977,0.98222 -0.1559,1.41876 0.23386,0.43654 0.8263,0.53009 1.09134,0.3274 0.26504,-0.20268 0.20268,-0.70157 -0.0312,-1.13812 -0.23387,-0.43654 -0.63922,-0.81071 -0.90426,-0.60804 z"
           id="path44"
           sodipodi:nodetypes="sssss" />
        <path
           style="font-variation-settings:'wdth' 87, 'wght' 600;opacity:1;fill:#a9ffab;fill-opacity:0.960784;stroke:none;stroke-width:0.105833;stroke-linecap:round;stroke-linejoin:round;stroke-dasharray:none;stroke-opacity:1;paint-order:markers stroke fill"
           d="m 354.00292,149.57738 c 0.21827,0.21827 0.6548,0.34299 0.9978,0.57686 0.343,0.23386 0.59245,0.57685 0.76395,0.4833 0.1715,-0.0935 0.26504,-0.62362 0.1559,-0.96662 -0.10914,-0.343 -0.42094,-0.4989 -0.81071,-0.62363 -0.38977,-0.12472 -0.85749,-0.21827 -1.09135,-0.10913 -0.23387,0.10914 -0.23387,0.42095 -0.0156,0.63922 z"
           id="path45"
           sodipodi:nodetypes="sssssss" />
        <path
           id="path46"
           style="font-variation-settings:'wdth' 87, 'wght' 600;opacity:1;fill:#a9ffab;fill-opacity:0.960784;stroke:none;stroke-width:0.105833;stroke-linecap:round;stroke-linejoin:round;stroke-dasharray:none;stroke-opacity:1;paint-order:markers stroke fill"
           d="m 299.41054,62.164833 c 0.66596,-0.217668 0.98288,-0.457659 1.38938,-0.752653 0.35467,-0.286406 0.64246,-0.69038 0.82189,-1.088459 0.17587,-0.463434 0.23702,-0.674223 -0.25906,-1.853839 -0.49611,-1.179617 -1.6035,-2.811997 -1.62553,-3.715986 -0.022,-0.90399 1.45463,-0.882182 1.91765,-1.290089 0.46301,-0.407907 -0.0411,-1.795128 -0.77946,-1.849541 -0.69851,-0.0074 -1.88802,0.78006 -2.59358,0.691858 -0.70555,-0.0882 -1.10238,-0.771475 -1.35594,-0.429709 -0.25356,0.341765 -0.36408,1.70843 -1.12477,2.623449 -0.76069,0.915021 -2.17121,1.378594 -3.29568,2.392846 -1.12449,1.014252 -1.9626,2.579588 -1.42239,3.042602 0.54021,0.463014 2.4586,-0.176859 3.55001,-1.003691 1.0914,-0.826833 1.35605,-1.840526 1.75292,-2.43584 0.39688,-0.595314 0.92558,-0.771947 1.28938,-0.253792 0.36381,0.518154 0.56267,1.730969 0.26501,2.227057 -0.29766,0.49609 -1.0917,0.275753 -1.43345,0.441123 -0.34175,0.16537 -0.23118,0.716108 -0.49577,0.936592 -0.2646,0.220484 -0.90425,0.110289 -1.03653,0.33078 -0.13229,0.220492 0.0774,0.705937 -0.19828,1.29023 -0.27561,0.584294 -0.0274,0.986283 0.2261,1.107545 0.25357,0.121263 0.67721,0.02142 2.41927,-0.02704 0.81717,-0.02273 1.15414,-0.153202 1.98883,-0.383443 z"
           sodipodi:nodetypes="cccccscsssssssssssscssc" />
        <path
           id="path64"
           style="font-variation-settings:'wdth' 87, 'wght' 600;opacity:1;fill:#a9ffab;fill-opacity:0.960784;stroke:none;stroke-width:0.105833;stroke-linecap:round;stroke-linejoin:round;stroke-dasharray:none;stroke-opacity:1;paint-order:markers stroke fill"
           d="m 338.25821,23.832222 c -0.22769,0.165926 0.19892,0.599053 0.88925,1.171141 2.14454,1.777206 1.29292,1.947719 -0.72267,2.350323 -0.72879,0.121286 -2.07059,0.32481 -2.66309,0.272834 -0.88867,-0.07796 -1.5119,-0.358454 -2.06538,-0.327269 -0.55347,0.03118 -1.03676,0.374685 -1.53567,0.390275 -0.49891,0.01559 -1.01357,-0.296285 -1.59043,-0.428808 -0.57686,-0.132522 -1.21603,-0.0866 -1.36414,0.139472 -0.14811,0.22607 0.19499,0.631888 1.11486,0.86575 0.91986,0.233861 2.41647,0.296375 3.67153,0.272987 1.25506,-0.02339 2.26841,-0.132794 2.63478,-0.0081 0.36638,0.124729 0.0854,0.48333 0.24128,1.029012 0.15591,0.54568 0.74824,1.278313 0.66248,1.480986 -0.0858,0.202674 -0.8495,-0.124315 -1.3406,-0.100924 -0.49111,0.02339 -0.70951,0.397454 -0.51462,0.62352 0.19489,0.226066 0.80316,0.304129 1.50475,0.49122 0.2217,0.05912 1.54352,0.579246 2.10529,1.237216 0.38887,0.525247 0.36123,2.146744 -0.50509,1.770363 -0.37944,-0.07779 -1.80126,-1.301269 -2.2157,-0.774457 -0.34088,0.433307 0.26951,1.059311 0.88043,1.551293 0.77495,0.568253 2.09083,1.800394 1.81634,2.222248 -0.27006,0.415021 -3.08801,-0.676027 -3.32685,-0.153034 -0.22679,0.496618 1.92907,1.033082 1.85277,1.503654 -0.0777,0.479138 -2.68065,-0.232643 -3.07822,0.09476 -0.39757,0.3274 -0.7876,1.387383 -1.22415,2.034408 -0.43654,0.647025 -0.91933,0.8816 -1.23895,0.647741 -0.31961,-0.233858 -0.47583,-0.935673 -0.81883,-1.27088 -0.343,-0.335208 -0.8731,-0.304178 -0.8809,0.155749 -0.008,0.459927 0.50616,1.348275 0.2801,2.299314 -0.22606,0.951039 -1.19236,1.964397 -1.94852,2.27622 -0.75616,0.311822 -1.30188,-0.07723 -1.62929,-0.505974 -0.32741,-0.428748 -0.43638,-0.896773 0.0625,-1.122843 0.4989,-0.22607 1.60629,-0.210524 2.17535,-0.670448 0.56906,-0.459924 0.59953,-1.395587 -0.52301,-1.91009 -1.12254,-0.514503 -3.39855,-0.607944 -4.59125,-0.927553 -1.19271,-0.31961 -1.3015,-0.865716 -2.39285,-0.904697 -1.09135,-0.03898 -3.1649,0.42943 -4.69281,0.959519 -1.52791,0.530089 -2.5104,1.122537 -2.88459,1.566879 -0.37419,0.444341 -0.14026,0.740088 -0.53782,1.511828 -0.39756,0.771739 -1.42675,2.019401 -2.68961,3.110763 -1.26286,1.091362 -2.75967,2.026422 -3.54701,2.821556 -0.78735,0.795134 -0.86451,1.450147 -0.81774,2.221895 0.0468,0.771749 0.21782,1.660593 1.14547,1.738556 0.92764,0.07796 2.61135,-0.654623 3.42208,-0.140137 0.81073,0.514485 0.74869,2.275712 1.42689,2.985106 0.67819,0.709394 2.09629,0.366574 2.71993,-0.225877 0.62365,-0.592449 0.45256,-1.43424 0.83453,-1.972128 0.38197,-0.537889 1.31736,-0.771465 1.20823,-1.527615 -0.10912,-0.75615 -1.26275,-2.03491 -0.77945,-3.53163 0.4833,-1.49672 2.60357,-3.211501 3.78848,-3.764987 1.18492,-0.553486 1.43429,0.05448 1.02114,0.615757 -0.41315,0.56127 -1.48868,1.075131 -2.08893,2.072942 -0.60026,0.997811 -0.72541,2.479405 -0.16414,3.040685 0.56126,0.561281 1.80848,0.202887 2.85306,-0.05437 1.04459,-0.257249 1.88675,-0.413237 2.3311,-0.249535 0.44434,0.163701 0.49125,0.646504 -0.35844,0.934938 -0.84969,0.288434 -2.59613,0.382391 -3.55498,1.060589 -0.95884,0.678196 -1.12983,1.940844 -1.57417,2.985434 -0.44434,1.044591 -1.16149,1.87127 -2.38537,2.229862 -1.22387,0.358592 -2.95457,0.249384 -4.09271,-0.171565 -1.13814,-0.420951 -1.68376,-1.154249 -1.7929,-1.614183 -0.10913,-0.459934 0.21824,-0.646498 0.38975,-0.981699 0.1715,-0.335201 0.18651,-0.819046 -0.43711,-1.029525 -0.62362,-0.210479 -1.88645,-0.147999 -2.37757,0.623741 -0.49113,0.771741 -0.20974,2.253085 -0.50596,3.009249 -0.29622,0.756164 -1.16974,0.78735 -2.35464,1.418774 -1.02433,0.545855 -3.08828,2.0069 -3.41829,2.220899 -0.67434,0.457171 -1.09726,0.782907 -1.75007,1.199973 -0.51684,0.274286 -1.6913,0.903235 -2.79086,1.045885 -1.44216,0.187095 -3.15673,-0.0308 -3.39061,0.60062 -0.23388,0.631421 1.01339,2.112031 1.87089,3.41387 0.8575,1.301839 1.32491,2.424174 1.0131,2.969861 -0.31181,0.545687 -1.4031,0.51461 -3.03234,0.187206 -1.62924,-0.327404 -3.79614,-0.950947 -4.91089,-0.553389 -1.11476,0.397557 -1.17712,1.816487 -1.74618,2.89226 -0.56906,1.075772 -1.64493,1.808229 -2.17502,2.798244 -0.53009,0.990016 -0.51458,2.237414 -0.0624,2.736329 0.45213,0.498915 1.34055,0.249359 1.76931,0.545578 0.42876,0.296219 0.3982,1.138184 1.88712,1.208352 1.48892,0.07017 4.49761,-0.631279 5.96316,-1.215936 1.46556,-0.584657 1.38736,-1.052409 1.51988,-1.769581 0.13252,-0.717172 0.47599,-1.683491 1.3101,-2.197994 0.8341,-0.514505 2.15901,-0.577097 2.81383,-1.177339 0.65482,-0.600241 0.63963,-1.738749 1.03719,-1.988211 0.39756,-0.249461 1.20815,0.390375 2.23715,0.515106 1.02899,0.124731 2.27587,-0.265098 3.21133,-0.46778 0.93545,-0.202683 1.55957,-0.218239 1.65312,3e-5 0.0936,0.21827 -0.34335,0.6701 0.7246,1.621137 1.06796,0.951037 3.64064,2.400922 4.71642,3.484489 1.07578,1.083567 0.65494,1.800838 0.30414,2.276361 -0.35079,0.475523 -0.63188,0.709381 -1.03724,0.623636 -0.40536,-0.08575 -0.93518,-0.491294 -1.56661,-0.577045 -0.63143,-0.08575 -1.36392,0.148603 -1.14566,0.538372 0.21827,0.389771 1.38725,0.935516 2.19798,1.465605 0.81073,0.530089 1.26313,1.04428 1.4892,0.857197 0.22606,-0.187082 0.22576,-1.07618 0.63112,-1.785567 0.40536,-0.709386 1.21604,-1.238932 1.4577,-1.683271 0.24167,-0.444338 -0.0857,-0.803107 -0.22601,-1.138313 -0.14032,-0.335207 -0.0933,-0.646734 0.21845,-0.623353 0.31182,0.02338 0.88885,0.381995 1.29421,0.444361 0.40536,0.06236 0.63843,-0.172234 -0.3204,-1.037521 -0.95882,-0.865286 -3.10988,-2.36158 -4.26361,-3.795938 -1.15373,-1.434358 -1.30988,-2.806358 -0.79539,-2.658261 0.51449,0.148096 1.69957,1.816606 2.94683,2.884586 1.24727,1.067978 2.55658,1.535305 3.01652,2.073189 0.45994,0.537883 0.0705,1.14616 0.32777,1.69184 0.25724,0.545679 1.16127,1.02922 1.61341,1.668444 0.45214,0.639223 0.45239,1.433436 0.60051,1.99471 0.14811,0.561275 0.44399,0.889143 1.14557,1.294506 0.70159,0.405363 1.80864,0.888866 2.12047,1.325409 0.31183,0.436545 -0.17138,0.826183 0.16381,1.075638 0.3352,0.249453 1.48869,0.358352 2.19808,0.303787 0.70939,-0.05456 0.97461,-0.272387 0.88107,-0.475068 -0.0935,-0.202681 -0.5455,-0.389677 -0.65464,-0.740469 -0.10914,-0.350793 0.12494,-0.865395 -0.0856,-1.574778 -0.21047,-0.709383 -0.86536,-1.614062 -1.54357,-2.432583 -0.6782,-0.818521 -1.37984,-1.551037 -1.09922,-2.18247 0.28063,-0.631431 1.54309,-1.161405 1.98744,-1.036686 0.44435,0.12472 0.0706,0.904034 0.11744,1.667985 0.0468,0.763952 0.5144,1.512197 0.92756,2.268351 0.41316,0.756154 0.77119,1.520377 1.39482,1.933538 0.62363,0.413163 1.51243,0.475779 2.30756,0.257511 0.79514,-0.218269 1.49702,-0.717728 2.15184,-0.694347 0.65482,0.02338 1.26297,0.569296 2.12826,0.499145 0.86529,-0.07015 1.9875,-0.756066 2.52539,-0.19481 0.5379,0.561256 0.49123,2.36932 0.39768,3.663365 -0.0935,1.294045 -0.23389,2.073975 -0.95886,2.440364 -0.72497,0.366389 -2.03479,0.319373 -3.17292,0.561028 -1.13813,0.241655 -2.10448,0.771991 -2.95418,0.803177 -0.8497,0.03118 -1.5823,-0.43669 -2.38522,-0.647169 -0.80293,-0.210479 -1.67604,-0.163885 -2.72063,-0.436721 -1.04458,-0.272836 -2.26064,-0.86481 -3.06357,-0.76348 -0.80293,0.101331 -1.19297,0.895972 -1.83999,1.597563 -0.64701,0.701589 -1.55074,1.310133 -2.65768,1.146435 -1.10695,-0.1637 -2.41732,-1.099797 -4.25704,-1.778001 -1.83972,-0.678205 -4.20912,-1.098795 -5.20695,-1.870538 -0.99782,-0.771745 -0.62361,-1.894291 -0.24163,-3.048013 0.38197,-1.153722 0.77179,-2.338296 -2.33075,-2.642328 -3.10254,-0.304031 -9.69757,0.27278 -14.25013,1.013344 -4.55255,0.740565 -7.06245,1.644585 -8.34871,2.891849 -1.28625,1.247262 -1.34874,2.83744 -2.01914,3.788489 -0.6704,0.951049 -1.94888,1.263005 -3.98349,2.845459 -2.03459,1.582468 -4.82507,4.435619 -6.06456,6.883377 -1.23949,2.447767 -0.92773,4.490067 -1.41884,6.017977 -0.4911,1.5279 -1.78498,2.54139 -1.75381,6.37671 0.0312,3.83532 1.38747,10.49218 4.79406,14.01575 3.40658,3.52355 8.86318,3.91323 13.02595,3.33638 4.16278,-0.57685 7.0313,-2.12043 8.83205,-1.79304 1.80075,0.32739 2.53378,2.52607 4.28774,3.28223 1.75396,0.75617 4.52909,0.0702 5.3944,1.28619 0.86531,1.21607 -0.17902,4.33442 0.23412,7.1018 0.41315,2.76737 2.28326,5.18384 3.84234,7.4679 1.55909,2.28406 2.80635,4.43543 2.54911,6.7117 -0.25723,2.27626 -2.01858,4.67711 -2.0108,6.79747 0.008,2.12036 1.78466,3.96015 2.94618,5.73751 1.16152,1.77736 1.7075,3.49202 2.78228,4.90372 1.07478,1.4117 2.67887,2.52027 3.31546,3.63671 0.63659,1.11644 0.30596,2.24077 2.01471,2.75893 1.70876,0.51815 5.45704,0.43001 8.76437,-0.73857 3.30732,-1.16857 6.17347,-3.41741 7.35309,-5.00492 1.17963,-1.58752 0.67262,-2.5139 1.54354,-3.36278 0.87092,-0.84889 3.11953,-1.62031 3.64872,-2.60148 0.52919,-0.98117 -0.66154,-2.17207 0.23141,-3.56114 0.89296,-1.38907 3.86937,-2.97628 5.60021,-4.77325 1.73084,-1.79696 2.21598,-3.8032 2.28213,-5.34661 0.0662,-1.54343 -0.28655,-2.62396 -0.56216,-4.05712 -0.27561,-1.43318 -0.47418,-3.21908 0.41879,-5.77673 0.89296,-2.55765 2.87774,-5.88702 4.42116,-7.89348 1.54342,-2.00644 2.6455,-2.68955 3.9133,-4.43141 1.2678,-1.74184 2.70078,-4.5425 3.67094,-6.84661 0.97015,-2.30411 1.47773,-4.11152 1.65412,-5.53368 0.1764,-1.42215 0.022,-2.4585 -0.37483,-2.57978 -0.39688,-0.12128 -1.03606,0.67232 -2.34796,1.46607 -1.31189,0.79377 -3.29685,1.58726 -4.64183,1.95107 -1.34498,0.36381 -2.05043,0.29786 -2.73394,-0.52896 -0.68351,-0.82682 -1.34454,-2.4146 -2.31469,-3.46193 -0.97014,-1.04731 -2.24927,-1.55417 -3.02099,-2.36998 -0.77172,-0.8158 -1.03589,-1.94003 -1.57608,-2.61254 -0.54019,-0.67249 -1.35607,-0.89308 -1.91831,-1.8522 -0.56225,-0.95912 -0.87137,-2.65667 -1.49976,-4.06778 -0.62839,-1.41113 -1.57659,-2.535635 -2.59083,-4.266454 -1.01424,-1.730828 -2.09391,-4.068508 -1.23404,-3.715758 0.85988,0.352759 3.65954,3.39619 5.18092,5.568007 1.52138,2.171815 1.7637,3.472145 2.21569,4.056455 0.452,0.58429 1.11351,0.4518 2.05058,1.32271 0.93707,0.87091 2.14972,2.74534 3.03167,4.69665 0.88195,1.95132 1.43347,3.97944 2.67922,4.36532 1.24574,0.38586 3.18554,-0.87058 4.73998,-1.93994 1.55444,-1.06937 2.72331,-1.951 3.40683,-2.84398 0.68352,-0.89298 0.88164,-1.797 1.65335,-2.67895 0.7717,-0.88195 2.1172,-1.74193 3.03223,-2.44749 0.91503,-0.70558 1.39984,-1.25681 1.57623,-1.98443 0.17639,-0.72761 0.0439,-1.63209 0.18726,-2.260476 0.14331,-0.6284 0.56237,-0.98082 0.82695,-1.565109 0.26459,-0.584289 0.37508,-1.400181 0.20972,-2.20497 -0.16536,-0.804769 -0.60626,-1.598518 -1.42206,-1.929247 -0.8158,-0.33074 -2.00667,-0.198638 -2.70121,-0.683708 -0.69455,-0.485069 -0.89328,-1.587295 -1.25708,-1.631405 -0.3638,-0.0441 -0.89244,0.970681 -1.65312,1.77547 -0.76068,0.804779 -1.75336,1.399735 -2.23844,1.091055 -0.48507,-0.30867 -0.4628,-1.521607 -0.8266,-2.006687 -0.3638,-0.485079 -1.11356,-0.242553 -2.22702,-0.661472 -1.11346,-0.41892 -2.59028,-1.499033 -2.78873,-2.60147 -0.19846,-1.102438 0.88136,-2.226823 1.7082,-2.028398 0.82683,0.198425 1.40069,1.719752 1.94089,2.348152 0.54019,0.628399 1.04684,0.363427 1.63113,0.572885 0.5843,0.20946 1.24588,0.893257 2.06168,0.882247 0.81581,-0.011 1.7857,-0.716498 2.36999,-0.694448 0.5843,0.022 0.78295,0.771694 1.72002,1.091404 0.93706,0.319709 2.61301,0.209592 3.85876,-0.132168 1.24577,-0.341749 2.06159,-0.915139 2.77818,-1.400211 0.71659,-0.485075 1.33339,-0.881549 2.19329,-0.694141 0.85991,0.18741 1.96284,0.958628 2.53612,1.509847 0.57327,0.55122 0.617,0.882409 1.05797,1.367479 0.44097,0.485069 1.27882,1.123838 1.81902,1.167938 0.5402,0.0441 0.78322,-0.507016 1.31239,-0.473946 0.52916,0.0331 1.34494,0.650714 1.88514,1.334223 0.5402,0.683509 0.80421,1.432917 0.96958,2.270766 0.16537,0.83786 0.23171,1.763931 0.52936,2.46949 0.29766,0.70557 0.82684,1.19069 1.28987,2.10572 0.46302,0.91502 0.85982,2.25986 1.48821,3.65996 0.62839,1.4001 1.4885,2.85543 2.05075,3.27437 0.56225,0.41894 0.82705,-0.19819 1.08061,-0.16514 0.25356,0.0331 0.49535,0.71628 0.81506,1.2234 0.31971,0.50714 0.71705,0.83735 0.90447,0.28614 0.18742,-0.5512 0.1654,-1.98403 -0.022,-3.03136 -0.18742,-1.04731 -0.54035,-1.70859 -0.83801,-1.86293 -0.29766,-0.15435 -0.54023,0.19842 -0.78277,0.55119 -0.37482,-4.16717 -0.7498,-8.334831 -0.65058,-12.755607 0.0992,-4.420784 0.67225,-9.094558 1.65341,-10.031669 0.98117,-0.93711 2.37022,1.862948 3.70417,3.946566 1.33395,2.083616 2.61339,3.450684 3.89221,4.817691 C 396.81367,72.805057 388.06952,57.458159 377.6103,46.3536 366.97788,35.06517 353.16605,28.185229 345.40647,25.632616 c -3.83856,-1.262743 -5.74483,-1.837798 -6.68798,-1.872609 -0.23579,-0.0087 -0.38439,0.01691 -0.46028,0.07221 z"
           sodipodi:nodetypes="sscssssssscscsssccscssssssscssssssssssssscssssssssssssssssssssssssccsssssssssssssssssscssssssssssssssssssssssssscsssssssssssscsssssssssssssssssscsssssssscsssssssssscssssssssssssssssssssssssssscsssssssssssssscssssssssssssssssssscssscsssss" />
        <path
           style="font-variation-settings:'wdth' 87, 'wght' 600;opacity:1;fill:#a9ffab;fill-opacity:0.960784;stroke:none;stroke-width:0.105833;stroke-linecap:round;stroke-linejoin:round;stroke-dasharray:none;stroke-opacity:1;paint-order:markers stroke fill"
           d="m 254.86152,50.747798 c 6.6261,-7.971339 14.82791,-14.787626 23.58337,-19.621718 8.7862,-4.851071 18.44288,-7.844336 28.61436,-9.423796 -1.04458,0.997807 -2.08916,1.995616 -3.46116,2.634838 -1.372,0.639221 -3.07135,0.919847 -3.87428,1.161496 -0.80292,0.241649 -0.70937,0.444343 -0.3118,0.491114 0.39757,0.04677 1.09914,-0.06236 2.24507,-0.265045 1.14594,-0.202683 2.73616,-0.498901 3.76515,-0.350783 1.02899,0.148118 1.49671,0.740555 1.44213,1.130325 -0.0546,0.389769 -0.63142,0.576855 -0.91204,0.818514 -0.28063,0.241658 -0.26503,0.537875 0.42098,0.639214 0.68601,0.101339 2.04237,0.0078 2.74396,0.311823 0.70158,0.304027 0.74835,1.005591 0.92765,1.496703 0.17929,0.491111 0.4911,0.771738 -0.0936,0.997806 -0.58467,0.226068 -2.06576,0.397562 -2.89207,0.857496 -0.82631,0.459935 -0.9978,1.208273 -1.48892,1.590247 -0.49112,0.381973 -1.30182,0.397563 -1.59025,0.66261 -0.28842,0.265048 -0.0546,0.779532 -0.40536,1.278439 -0.3508,0.498907 -1.28623,0.982212 -2.16711,1.130321 -0.88089,0.148109 -1.70718,-0.03898 -2.22168,0.420962 -0.51449,0.459938 -0.71716,1.566858 -1.97224,2.089146 -1.25508,0.522287 -3.56246,0.459926 -5.30863,0.724973 -1.74617,0.265047 -2.93104,0.857482 -3.91327,0.912047 -0.98222,0.05456 -1.76174,-0.428738 -2.50231,-0.116915 -0.74056,0.311824 -1.44213,1.418745 -2.64263,2.198287 -1.20051,0.779541 -2.89986,1.231661 -3.64821,1.138112 -0.74836,-0.09355 -0.54568,-0.732758 -0.13252,-1.644827 0.41316,-0.91207 1.03677,-2.09694 2.2061,-3.203893 1.16932,-1.106953 2.88426,-2.135917 4.73958,-2.94664 1.85531,-0.810723 3.85089,-1.40316 4.64601,-2.026796 0.79512,-0.623636 0.38977,-1.278432 1.25507,-1.870885 0.86531,-0.592453 3.0012,-1.122526 3.96003,-1.746163 0.95883,-0.623637 0.74056,-1.340793 1.27066,-1.699381 0.53009,-0.358587 1.80851,-0.358587 3.21948,-0.342997 1.41098,0.01559 2.95443,0.04677 3.71837,-0.116936 0.76394,-0.163707 0.74834,-0.522286 -0.66265,-0.608033 -1.411,-0.08575 -4.21727,0.101337 -5.332,-0.03119 -1.11473,-0.132526 -0.53789,-0.584645 -0.38978,-0.857484 0.14811,-0.27284 -0.13252,-0.366383 -0.54568,-0.02338 -0.41316,0.343005 -0.95882,1.122525 -1.26284,1.262833 -0.30402,0.140308 -0.36638,-0.358581 -0.16369,-0.818511 0.20268,-0.45993 0.67039,-0.88087 0.75614,-1.1693 0.0857,-0.28843 -0.21048,-0.444335 -0.56127,-0.319605 -0.3508,0.12473 -0.75615,0.530081 -1.37199,0.678192 -0.61584,0.148111 -1.44213,0.03898 -1.90206,0.218272 -0.45992,0.179293 -0.55347,0.647015 -0.19487,0.865283 0.35859,0.218269 1.16929,0.187086 1.43433,0.413156 0.26504,0.22607 -0.0156,0.709374 -0.72498,1.052372 -0.70939,0.342997 -1.84749,0.545673 -2.63482,1.122539 -0.78734,0.576866 -1.22387,1.527881 -1.90987,1.917647 -0.686,0.389767 -1.62143,0.218271 -2.61145,0.935461 -0.99002,0.717191 -2.03458,2.323005 -2.8375,2.970014 -0.80293,0.647009 -1.36419,0.3352 -1.30182,-0.0078 0.0624,-0.342998 0.74835,-0.717169 1.03678,-1.028985 0.28843,-0.311816 0.17929,-0.561266 -0.42875,-0.163693 -0.60805,0.397573 -1.71497,1.44213 -2.51011,1.941034 -0.79513,0.498905 -1.27843,0.452134 -1.76175,0.724976 -0.48331,0.272842 -0.96662,0.865282 -1.24725,0.912044 -0.28064,0.04676 -0.35859,-0.452124 0.52231,-1.356398 0.88089,-0.904274 2.72056,-2.21387 2.89204,-2.845293 0.17148,-0.631423 -1.32519,-0.584651 -2.29182,-0.3274 -0.96663,0.257252 -1.40316,0.724963 -1.25504,0.997801 0.14811,0.272838 0.88087,0.350791 0.19486,1.09916 -0.68602,0.748369 -2.79073,2.167099 -3.03237,2.743952 -0.24164,0.576853 1.37977,0.311813 1.53566,0.647024 0.15589,0.335212 -1.1537,1.270634 -2.29963,2.377589 -1.14593,1.106955 -2.12812,2.385366 -2.90766,3.149313 -0.77954,0.763947 -1.35639,1.013395 -1.52789,1.605852 -0.17149,0.592458 0.0624,1.527884 -0.55348,2.315221 -0.61585,0.787337 -2.08135,1.426543 -2.94664,2.104746 -0.86528,0.678202 -1.13032,1.395365 -1.27842,2.112545 -0.14811,0.71718 -0.17927,1.434341 -0.53006,1.870881 -0.35079,0.436541 -1.02118,0.592446 -1.3252,-0.0234 -0.30402,-0.615849 -0.24165,-2.003393 0.5301,-3.164912 0.77176,-1.16152 2.25284,-2.096942 2.76733,-2.689393 0.51449,-0.59245 0.0624,-0.841897 -0.60804,-0.569051 -0.67041,0.272847 -1.55906,1.067956 -1.69937,0.935425 -0.14031,-0.132532 0.46771,-1.192678 0.51448,-2.042379 0.0468,-0.8497 -0.46772,-1.488911 -0.90426,-1.442131 -0.43654,0.04678 -0.79512,0.77953 -0.70937,1.371981 0.0857,0.592452 0.61583,1.044576 0.38975,1.512301 -0.22607,0.467725 -1.20827,0.951031 -1.76174,1.520098 -0.55347,0.569067 -0.67819,1.223864 -0.48331,1.488906 0.19489,0.265042 0.70938,0.140317 0.89647,0.304024 0.18708,0.163707 0.0468,0.615828 -0.92767,1.083555 -0.97444,0.467727 -2.78292,0.951029 -3.26623,0.834091 -0.4833,-0.116937 0.35858,-0.834094 0.84189,-1.356386 0.48332,-0.522292 0.60804,-0.849693 0.18708,-0.865281 -0.42096,-0.01559 -1.38757,0.280632 -1.98781,0.218266 -0.60024,-0.06237 -0.8341,-0.48331 -1.06796,-0.904259 z"
           id="path47"
           sodipodi:nodetypes="cscsssssssssssssssssssssssssssssssssssssssssssssssssssssssssssssssssssssssssssssssssssssscc" />
        <path
           style="font-variation-settings:'wdth' 87, 'wght' 600;opacity:1;fill:#a9ffab;fill-opacity:0.960784;stroke:none;stroke-width:0.105833;stroke-linecap:round;stroke-linejoin:round;stroke-dasharray:none;stroke-opacity:1;paint-order:markers stroke fill"
           d="m 293.96046,41.778232 c -0.44098,-0.209462 -1.38907,-0.03307 -1.88516,0.518151 -0.49609,0.551224 -0.54019,1.477247 -0.12125,2.127685 0.41893,0.650439 1.30085,1.025255 1.92924,1.025253 0.6284,-3e-6 1.00322,-0.374823 1.60956,-0.451991 0.60634,-0.07717 1.44417,0.143313 1.819,-0.319719 0.37482,-0.463032 0.28663,-1.609537 -0.29767,-1.973335 -0.5843,-0.363798 -1.66466,0.05512 -2.17177,-0.03308 -0.50712,-0.0882 -0.44097,-0.683502 -0.88195,-0.892963 z"
           id="path48"
           sodipodi:nodetypes="sssssssss" />
        <path
           style="font-variation-settings:'wdth' 87, 'wght' 600;opacity:1;fill:#a9ffab;fill-opacity:0.960784;stroke:none;stroke-width:0.105833;stroke-linecap:round;stroke-linejoin:round;stroke-dasharray:none;stroke-opacity:1;paint-order:markers stroke fill"
           d="m 299.85846,46.904533 c -0.29765,0.352779 -0.89297,1.058333 -0.94808,1.422135 -0.0551,0.363801 0.42994,0.385851 0.82682,0.220485 0.39688,-0.165366 0.70555,-0.518139 0.76067,-0.881945 0.0551,-0.363805 -0.14331,-0.738627 -0.24253,-0.926038 -0.0992,-0.187411 -0.0992,-0.187415 -0.39688,0.165363 z"
           id="path49"
           sodipodi:nodetypes="ssssss" />
        <path
           style="font-variation-settings:'wdth' 87, 'wght' 600;opacity:1;fill:#a9ffab;fill-opacity:0.960784;stroke:none;stroke-width:0.105833;stroke-linecap:round;stroke-linejoin:round;stroke-dasharray:none;stroke-opacity:1;paint-order:markers stroke fill"
           d="m 302.72478,49.87007 c -0.452,0.05512 -1.04731,0.518141 -1.0914,0.826823 -0.0441,0.308683 0.46301,0.463018 0.91501,0.407895 0.452,-0.05512 0.84887,-0.319701 0.89297,-0.628386 0.0441,-0.308685 -0.26458,-0.661451 -0.71658,-0.606332 z"
           id="path50"
           sodipodi:nodetypes="sssss" />
        <path
           style="font-variation-settings:'wdth' 87, 'wght' 600;opacity:1;fill:#a9ffab;fill-opacity:0.960784;stroke:none;stroke-width:0.105833;stroke-linecap:round;stroke-linejoin:round;stroke-dasharray:none;stroke-opacity:1;paint-order:markers stroke fill"
           d="m 331.86409,32.038932 c -0.40536,0.514495 -1.21607,1.543485 -1.27843,2.829732 -0.0623,1.286247 0.62362,2.829699 1.48892,3.562462 0.86529,0.732763 1.90985,0.65481 2.41655,0.381968 0.50671,-0.272843 0.47554,-0.740557 0.10916,-0.974416 -0.36638,-0.233859 -1.06795,-0.233859 -1.58245,-0.662612 -0.5145,-0.428754 -0.84189,-1.286227 -0.70157,-2.330817 0.14032,-1.044591 0.74835,-2.276232 0.8185,-2.860884 0.0701,-0.584653 -0.39756,-0.522291 -0.63142,-0.491109 -0.23386,0.03118 -0.2339,0.03118 -0.63926,0.545676 z"
           id="path53"
           sodipodi:nodetypes="ssssssssss" />
        <path
           style="font-variation-settings:'wdth' 87, 'wght' 600;opacity:1;fill:#a9ffab;fill-opacity:0.960784;stroke:none;stroke-width:0.105833;stroke-linecap:round;stroke-linejoin:round;stroke-dasharray:none;stroke-opacity:1;paint-order:markers stroke fill"
           d="m 314.44146,32.148068 c -0.19488,0.296224 -0.58465,0.888668 -0.40535,1.216075 0.1793,0.327406 0.92764,0.389769 1.333,0.732772 0.40536,0.343004 0.46772,0.966616 0.70159,1.239453 0.23386,0.272837 0.63921,0.194885 0.75614,-0.179299 0.11693,-0.374184 -0.0546,-1.044572 0.0234,-1.387567 0.0779,-0.342995 0.40535,-0.358584 0.70938,-0.109127 0.30402,0.249457 0.58465,0.763938 0.93544,0.880869 0.3508,0.11693 0.77174,-0.163701 0.8341,-0.381972 0.0624,-0.218271 -0.23386,-0.374175 -0.47552,-0.498903 -0.24166,-0.124728 -0.42874,-0.218268 -0.24944,-0.467725 0.1793,-0.249456 0.72496,-0.654805 0.8341,-0.997805 0.10913,-0.343001 -0.21827,-0.623629 -0.88869,-0.56126 -0.67041,0.06237 -1.68379,0.467721 -2.39317,0.561261 -0.70938,0.09354 -1.11473,-0.124723 -1.31741,-0.233858 -0.20268,-0.109135 -0.20268,-0.109138 -0.39756,0.187086 z"
           id="path55"
           sodipodi:nodetypes="ssssssssssssssss" />
        <path
           style="font-variation-settings:'wdth' 87, 'wght' 600;opacity:1;fill:#a9ffab;fill-opacity:0.960784;stroke:none;stroke-width:0.105833;stroke-linecap:round;stroke-linejoin:round;stroke-dasharray:none;stroke-opacity:1;paint-order:markers stroke fill"
           d="m 323.52306,30.822856 c -0.24945,0.06236 -0.35859,0.358585 -0.0468,0.569062 0.31182,0.210476 1.04457,0.3352 1.29402,0.272835 0.24945,-0.06236 0.0156,-0.311813 -0.29622,-0.522289 -0.31182,-0.210475 -0.70158,-0.38197 -0.95103,-0.319608 z"
           id="path56"
           sodipodi:nodetypes="sssss" />
        <path
           style="font-variation-settings:'wdth' 87, 'wght' 600;opacity:1;fill:#a9ffab;fill-opacity:0.960784;stroke:none;stroke-width:0.105833;stroke-linecap:round;stroke-linejoin:round;stroke-dasharray:none;stroke-opacity:1;paint-order:markers stroke fill"
           d="m 324.88725,29.864029 c -0.11693,0.101345 -0.039,0.553467 0.31182,0.849693 0.35079,0.296225 0.9744,0.436537 1.35638,0.31181 0.38198,-0.124727 0.5223,-0.51449 0.3274,-0.685988 -0.19489,-0.171498 -0.72496,-0.124727 -1.14591,-0.226069 -0.42096,-0.101343 -0.73277,-0.350791 -0.84969,-0.249446 z"
           id="path57"
           sodipodi:nodetypes="ssssss" />
        <path
           style="font-variation-settings:'wdth' 87, 'wght' 600;opacity:1;fill:#a9ffab;fill-opacity:0.960784;stroke:none;stroke-width:0.105833;stroke-linecap:round;stroke-linejoin:round;stroke-dasharray:none;stroke-opacity:1;paint-order:markers stroke fill"
           d="m 306.57226,73.539252 c -0.28663,0.330729 -0.44097,0.992188 -0.46301,1.554431 -0.0221,0.562242 0.0882,1.025257 -0.14333,1.466234 -0.23151,0.440977 -0.80477,0.859891 -0.92603,1.322915 -0.12127,0.463024 0.20945,0.970132 0.71658,0.915004 0.50713,-0.05513 1.19062,-0.672477 1.4993,-1.333939 0.30868,-0.661461 0.24254,-1.367009 0.25356,-2.083596 0.011,-0.716587 0.0992,-1.444175 -0.0661,-1.807977 -0.16537,-0.363801 -0.58429,-0.363801 -0.87092,-0.03307 z"
           id="path58"
           sodipodi:nodetypes="sssssssss" />
        <path
           style="font-variation-settings:'wdth' 87, 'wght' 600;opacity:1;fill:#a9ffab;fill-opacity:0.960784;stroke:none;stroke-width:0.105833;stroke-linecap:round;stroke-linejoin:round;stroke-dasharray:none;stroke-opacity:1;paint-order:markers stroke fill"
           d="m 300.96328,75.630587 c -0.43654,0.140317 -1.30962,0.42095 -1.76174,0.802928 -0.45212,0.381979 -0.48329,0.865285 -0.30398,1.067961 0.1793,0.202677 0.56906,0.124725 0.89647,-0.04678 0.32741,-0.171502 0.59245,-0.436535 0.93544,-0.654808 0.343,-0.218273 0.76394,-0.389767 0.88867,-0.600245 0.12472,-0.210478 -0.0468,-0.459923 -0.13252,-0.58465 -0.0857,-0.124726 -0.0858,-0.124726 -0.52234,0.01559 z"
           id="path59"
           sodipodi:nodetypes="ssssssss" />
      </g>
    </g>
    <path
       id="path31"
       style="opacity:1;fill:#a9ffab;fill-opacity:1;stroke:none;stroke-width:52.7239;stroke-linecap:round;stroke-linejoin:round"
       inkscape:label="ZIELONY_ŁUK"
       d="m -1335.1809,8.056793 a 449.83699,449.83699 0 0 0 -613.5817,167.998677 449.83699,449.83699 0 0 0 167.9994,613.58199 449.83699,449.83699 0 0 0 190.6011,57.38487 429.38988,429.38988 0 0 1 -132.6502,-47.88334 429.38988,429.38988 0 0 1 -160.363,-585.69198 429.38988,429.38988 0 0 1 585.6919,-160.363016 429.38988,429.38988 0 0 1 107.5419,87.131896 449.83699,449.83699 0 0 0 -145.2394,-132.159097 z"
       inkscape:transform-center-x="-3.8987512"
       inkscape:transform-center-y="-0.70742109"
       transform="translate(6.2226074e-5,-1.1635751e-5)" />
    <path
       id="circle30"
       style="opacity:1;fill:#7ee3ff;fill-opacity:1;stroke:none;stroke-width:10.2683;stroke-linecap:round;stroke-linejoin:round"
       inkscape:label="NIEBIESKI_ŁUK"
       d="M 145.98784,18.229659 A 87.608553,87.608553 0 0 0 27.91176,55.760101 87.608553,87.608553 0 0 0 65.442368,173.83625 87.608553,87.608553 0 0 0 102.98519,183.5001 83.626351,83.626351 0 0 1 76.794344,175.22821 83.626351,83.626351 0 0 1 40.969695,62.519173 83.626351,83.626351 0 0 1 153.67872,26.694531 83.626351,83.626351 0 0 1 175.2931,42.802055 87.608553,87.608553 0 0 0 145.98784,18.229659 Z"
       inkscape:transform-center-x="15.823506"
       inkscape:transform-center-y="-4.0711878"
       transform="matrix(4.9585133,-1.3332333,1.3332333,4.9585133,-2204.9637,37.281115)" />
  </g>
</svg>
